# xmcd
#
# Track frame offsets:
# 150
# 15977
# 36845
# 50715
# 69435
# 82640
#
# Disc length: 1242 seconds
#
#
# Revision: 0
# Processed by: cddbd v1.5.2PL0 Copyright (c) Steve Scherf et al.
# Submitted via: Nero 7, 11, 10, 0 
#
DISCID=3c04d806
DTITLE=The Repeat Offenders - The Best Defense
DYEAR=2001
DGENRE=Blues
TTITLE0=Switchblade
TTITLE1=Heaven Knows
TTITLE2=Long Way Down
TTITLE3=Shame On You
TTITLE4=Tempting Fate
TTITLE5=Hip Hug Her
EXTD=
EXTT0=Switchblade
EXTT1=Heaven Knows
EXTT2=Long Way Down
EXTT3=Shame On You
EXTT4=Tempting Fate
EXTT5=Hip Hug Her
PLAYORDER=
